<mxfile host="app.diagrams.net" modified="2022-02-08T17:27:03.884Z" agent="5.0 (Windows NT 10.0; Win64; x64) AppleWebKit/537.36 (KHTML, like Gecko) Chrome/98.0.4758.80 Safari/537.36 Edg/98.0.1108.43" etag="tLbp0Ihl9deJcY_hL76c" version="16.5.3" type="github">
  <diagram id="ya5vfbfaYAGrl-QKto53" name="Page-1">
    <mxGraphModel dx="1422" dy="786" grid="1" gridSize="10" guides="1" tooltips="1" connect="1" arrows="1" fold="1" page="1" pageScale="1" pageWidth="827" pageHeight="1169" math="0" shadow="0">
      <root>
        <mxCell id="0" />
        <mxCell id="1" parent="0" />
        <mxCell id="QuFZAEZIDUNKzH3IeO_t-1" value="Cliente&lt;br&gt;" style="whiteSpace=wrap;html=1;align=center;" parent="1" vertex="1">
          <mxGeometry x="80" y="200" width="120" height="80" as="geometry" />
        </mxCell>
        <mxCell id="QuFZAEZIDUNKzH3IeO_t-2" value="Appuntamento" style="whiteSpace=wrap;html=1;align=center;" parent="1" vertex="1">
          <mxGeometry x="600" y="200" width="120" height="80" as="geometry" />
        </mxCell>
        <mxCell id="QuFZAEZIDUNKzH3IeO_t-3" value="Acconciatura" style="whiteSpace=wrap;html=1;align=center;" parent="1" vertex="1">
          <mxGeometry x="600" y="520" width="120" height="80" as="geometry" />
        </mxCell>
        <mxCell id="QuFZAEZIDUNKzH3IeO_t-4" value="Prenota&lt;br&gt;--&amp;gt;" style="shape=rhombus;perimeter=rhombusPerimeter;whiteSpace=wrap;html=1;align=center;" parent="1" vertex="1">
          <mxGeometry x="320" y="200" width="120" height="80" as="geometry" />
        </mxCell>
        <mxCell id="QuFZAEZIDUNKzH3IeO_t-5" value="Ha&lt;br&gt;--&amp;gt;" style="shape=rhombus;perimeter=rhombusPerimeter;whiteSpace=wrap;html=1;align=center;" parent="1" vertex="1">
          <mxGeometry x="320" y="520" width="120" height="80" as="geometry" />
        </mxCell>
        <mxCell id="QuFZAEZIDUNKzH3IeO_t-6" value="" style="edgeStyle=entityRelationEdgeStyle;fontSize=12;html=1;endArrow=ERone;endFill=1;rounded=0;exitX=0;exitY=0.5;exitDx=0;exitDy=0;entryX=1;entryY=0.5;entryDx=0;entryDy=0;" parent="1" source="QuFZAEZIDUNKzH3IeO_t-4" target="QuFZAEZIDUNKzH3IeO_t-1" edge="1">
          <mxGeometry width="100" height="100" relative="1" as="geometry">
            <mxPoint x="360" y="570" as="sourcePoint" />
            <mxPoint x="460" y="470" as="targetPoint" />
          </mxGeometry>
        </mxCell>
        <mxCell id="QuFZAEZIDUNKzH3IeO_t-8" value="" style="edgeStyle=entityRelationEdgeStyle;fontSize=12;html=1;endArrow=ERmany;rounded=0;exitX=1;exitY=0.5;exitDx=0;exitDy=0;entryX=0;entryY=0.5;entryDx=0;entryDy=0;" parent="1" source="QuFZAEZIDUNKzH3IeO_t-4" target="QuFZAEZIDUNKzH3IeO_t-2" edge="1">
          <mxGeometry width="100" height="100" relative="1" as="geometry">
            <mxPoint x="360" y="570" as="sourcePoint" />
            <mxPoint x="460" y="470" as="targetPoint" />
          </mxGeometry>
        </mxCell>
        <mxCell id="QuFZAEZIDUNKzH3IeO_t-9" value="" style="edgeStyle=entityRelationEdgeStyle;fontSize=12;html=1;endArrow=ERone;endFill=1;rounded=0;exitX=1;exitY=0.5;exitDx=0;exitDy=0;entryX=0;entryY=0.5;entryDx=0;entryDy=0;" parent="1" source="QuFZAEZIDUNKzH3IeO_t-5" target="QuFZAEZIDUNKzH3IeO_t-3" edge="1">
          <mxGeometry width="100" height="100" relative="1" as="geometry">
            <mxPoint x="360" y="550" as="sourcePoint" />
            <mxPoint x="460" y="450" as="targetPoint" />
          </mxGeometry>
        </mxCell>
        <mxCell id="QuFZAEZIDUNKzH3IeO_t-11" value="" style="edgeStyle=elbowEdgeStyle;fontSize=12;html=1;endArrow=ERmany;rounded=0;elbow=vertical;exitX=0.5;exitY=0;exitDx=0;exitDy=0;entryX=0.5;entryY=1;entryDx=0;entryDy=0;" parent="1" source="QuFZAEZIDUNKzH3IeO_t-5" target="QuFZAEZIDUNKzH3IeO_t-2" edge="1">
          <mxGeometry width="100" height="100" relative="1" as="geometry">
            <mxPoint x="510" y="490" as="sourcePoint" />
            <mxPoint x="610" y="390" as="targetPoint" />
          </mxGeometry>
        </mxCell>
        <mxCell id="QuFZAEZIDUNKzH3IeO_t-14" value="(1)" style="text;html=1;strokeColor=none;fillColor=none;align=center;verticalAlign=middle;whiteSpace=wrap;rounded=0;" parent="1" vertex="1">
          <mxGeometry x="570" y="530" width="20" height="20" as="geometry" />
        </mxCell>
        <mxCell id="QuFZAEZIDUNKzH3IeO_t-15" value="(1)" style="text;html=1;strokeColor=none;fillColor=none;align=center;verticalAlign=middle;whiteSpace=wrap;rounded=0;" parent="1" vertex="1">
          <mxGeometry x="210" y="210" width="20" height="20" as="geometry" />
        </mxCell>
        <mxCell id="QuFZAEZIDUNKzH3IeO_t-16" value="(1,n)" style="text;html=1;strokeColor=none;fillColor=none;align=center;verticalAlign=middle;whiteSpace=wrap;rounded=0;" parent="1" vertex="1">
          <mxGeometry x="670" y="290" width="30" height="20" as="geometry" />
        </mxCell>
        <mxCell id="QuFZAEZIDUNKzH3IeO_t-17" value="(0,n)" style="text;html=1;strokeColor=none;fillColor=none;align=center;verticalAlign=middle;whiteSpace=wrap;rounded=0;" parent="1" vertex="1">
          <mxGeometry x="560" y="210" width="30" height="20" as="geometry" />
        </mxCell>
        <mxCell id="QuFZAEZIDUNKzH3IeO_t-19" value="" style="endArrow=none;html=1;rounded=0;elbow=vertical;" parent="1" edge="1">
          <mxGeometry width="50" height="50" relative="1" as="geometry">
            <mxPoint x="100" y="320" as="sourcePoint" />
            <mxPoint x="100" y="280" as="targetPoint" />
          </mxGeometry>
        </mxCell>
        <mxCell id="QuFZAEZIDUNKzH3IeO_t-20" value="" style="endArrow=none;html=1;rounded=0;elbow=vertical;" parent="1" edge="1">
          <mxGeometry width="50" height="50" relative="1" as="geometry">
            <mxPoint x="139.57999999999998" y="320" as="sourcePoint" />
            <mxPoint x="139.57999999999998" y="280" as="targetPoint" />
          </mxGeometry>
        </mxCell>
        <mxCell id="QuFZAEZIDUNKzH3IeO_t-21" value="" style="endArrow=none;html=1;rounded=0;elbow=vertical;" parent="1" edge="1">
          <mxGeometry width="50" height="50" relative="1" as="geometry">
            <mxPoint x="180" y="320" as="sourcePoint" />
            <mxPoint x="180" y="280" as="targetPoint" />
          </mxGeometry>
        </mxCell>
        <mxCell id="QuFZAEZIDUNKzH3IeO_t-22" value="" style="endArrow=none;html=1;rounded=0;elbow=vertical;" parent="1" edge="1">
          <mxGeometry width="50" height="50" relative="1" as="geometry">
            <mxPoint x="180" y="200" as="sourcePoint" />
            <mxPoint x="180" y="160" as="targetPoint" />
          </mxGeometry>
        </mxCell>
        <mxCell id="QuFZAEZIDUNKzH3IeO_t-23" value="" style="endArrow=none;html=1;rounded=0;elbow=vertical;" parent="1" edge="1">
          <mxGeometry width="50" height="50" relative="1" as="geometry">
            <mxPoint x="40" y="240" as="sourcePoint" />
            <mxPoint x="80" y="240" as="targetPoint" />
          </mxGeometry>
        </mxCell>
        <mxCell id="QuFZAEZIDUNKzH3IeO_t-24" value="" style="endArrow=none;html=1;rounded=0;elbow=vertical;" parent="1" edge="1">
          <mxGeometry width="50" height="50" relative="1" as="geometry">
            <mxPoint x="139.57999999999998" y="200" as="sourcePoint" />
            <mxPoint x="139.57999999999998" y="160" as="targetPoint" />
          </mxGeometry>
        </mxCell>
        <mxCell id="QuFZAEZIDUNKzH3IeO_t-25" value="" style="endArrow=none;html=1;rounded=0;elbow=vertical;" parent="1" edge="1">
          <mxGeometry width="50" height="50" relative="1" as="geometry">
            <mxPoint x="99.99999999999993" y="200" as="sourcePoint" />
            <mxPoint x="99.99999999999993" y="160" as="targetPoint" />
          </mxGeometry>
        </mxCell>
        <mxCell id="QuFZAEZIDUNKzH3IeO_t-26" value="" style="shape=waypoint;sketch=0;fillStyle=solid;size=6;pointerEvents=1;points=[];fillColor=none;resizable=0;rotatable=0;perimeter=centerPerimeter;snapToPoint=1;" parent="1" vertex="1">
          <mxGeometry x="20" y="220" width="40" height="40" as="geometry" />
        </mxCell>
        <mxCell id="QuFZAEZIDUNKzH3IeO_t-27" value="" style="ellipse;whiteSpace=wrap;html=1;aspect=fixed;spacingLeft=0;spacing=2;" parent="1" vertex="1">
          <mxGeometry x="95" y="320" width="10" height="10" as="geometry" />
        </mxCell>
        <mxCell id="QuFZAEZIDUNKzH3IeO_t-28" value="" style="ellipse;whiteSpace=wrap;html=1;aspect=fixed;spacingLeft=0;spacing=2;" parent="1" vertex="1">
          <mxGeometry x="135" y="320" width="10" height="10" as="geometry" />
        </mxCell>
        <mxCell id="QuFZAEZIDUNKzH3IeO_t-29" value="" style="ellipse;whiteSpace=wrap;html=1;aspect=fixed;spacingLeft=0;spacing=2;" parent="1" vertex="1">
          <mxGeometry x="175" y="320" width="10" height="10" as="geometry" />
        </mxCell>
        <mxCell id="QuFZAEZIDUNKzH3IeO_t-30" value="" style="ellipse;whiteSpace=wrap;html=1;aspect=fixed;spacingLeft=0;spacing=2;" parent="1" vertex="1">
          <mxGeometry x="175" y="150" width="10" height="10" as="geometry" />
        </mxCell>
        <mxCell id="QuFZAEZIDUNKzH3IeO_t-31" value="" style="ellipse;whiteSpace=wrap;html=1;aspect=fixed;spacingLeft=0;spacing=2;" parent="1" vertex="1">
          <mxGeometry x="135" y="150" width="10" height="10" as="geometry" />
        </mxCell>
        <mxCell id="QuFZAEZIDUNKzH3IeO_t-32" value="" style="ellipse;whiteSpace=wrap;html=1;aspect=fixed;spacingLeft=0;spacing=2;" parent="1" vertex="1">
          <mxGeometry x="95" y="150" width="10" height="10" as="geometry" />
        </mxCell>
        <mxCell id="QuFZAEZIDUNKzH3IeO_t-33" value="id" style="text;html=1;strokeColor=none;fillColor=none;align=center;verticalAlign=middle;whiteSpace=wrap;rounded=0;" parent="1" vertex="1">
          <mxGeometry x="20" y="230" width="20" height="20" as="geometry" />
        </mxCell>
        <mxCell id="QuFZAEZIDUNKzH3IeO_t-34" value="Nome" style="text;html=1;strokeColor=none;fillColor=none;align=center;verticalAlign=middle;whiteSpace=wrap;rounded=0;rotation=90;" parent="1" vertex="1">
          <mxGeometry x="80" y="120" width="40" height="20" as="geometry" />
        </mxCell>
        <mxCell id="QuFZAEZIDUNKzH3IeO_t-35" value="Cognome" style="text;html=1;strokeColor=none;fillColor=none;align=center;verticalAlign=middle;whiteSpace=wrap;rounded=0;rotation=90;" parent="1" vertex="1">
          <mxGeometry x="110" y="110" width="60" height="20" as="geometry" />
        </mxCell>
        <mxCell id="QuFZAEZIDUNKzH3IeO_t-36" value="Data_di_nascita" style="text;html=1;strokeColor=none;fillColor=none;align=center;verticalAlign=middle;whiteSpace=wrap;rounded=0;rotation=90;" parent="1" vertex="1">
          <mxGeometry x="135" y="90" width="90" height="20" as="geometry" />
        </mxCell>
        <mxCell id="QuFZAEZIDUNKzH3IeO_t-37" value="sesso&lt;br&gt;" style="text;html=1;strokeColor=none;fillColor=none;align=center;verticalAlign=middle;whiteSpace=wrap;rounded=0;rotation=90;" parent="1" vertex="1">
          <mxGeometry x="80" y="340" width="40" height="20" as="geometry" />
        </mxCell>
        <mxCell id="QuFZAEZIDUNKzH3IeO_t-38" value="Email" style="text;html=1;strokeColor=none;fillColor=none;align=center;verticalAlign=middle;whiteSpace=wrap;rounded=0;rotation=90;" parent="1" vertex="1">
          <mxGeometry x="120" y="340" width="40" height="20" as="geometry" />
        </mxCell>
        <mxCell id="QuFZAEZIDUNKzH3IeO_t-39" value="Login Type" style="text;html=1;strokeColor=none;fillColor=none;align=center;verticalAlign=middle;whiteSpace=wrap;rounded=0;rotation=90;" parent="1" vertex="1">
          <mxGeometry x="145" y="357.5" width="70" height="15" as="geometry" />
        </mxCell>
        <mxCell id="QuFZAEZIDUNKzH3IeO_t-40" value="" style="endArrow=none;html=1;rounded=0;elbow=vertical;" parent="1" edge="1">
          <mxGeometry width="50" height="50" relative="1" as="geometry">
            <mxPoint x="619.9999999999999" y="200" as="sourcePoint" />
            <mxPoint x="619.9999999999999" y="160" as="targetPoint" />
          </mxGeometry>
        </mxCell>
        <mxCell id="QuFZAEZIDUNKzH3IeO_t-41" value="" style="ellipse;whiteSpace=wrap;html=1;aspect=fixed;spacingLeft=0;spacing=2;" parent="1" vertex="1">
          <mxGeometry x="615" y="150" width="10" height="10" as="geometry" />
        </mxCell>
        <mxCell id="QuFZAEZIDUNKzH3IeO_t-42" value="" style="endArrow=none;html=1;rounded=0;elbow=vertical;" parent="1" edge="1">
          <mxGeometry width="50" height="50" relative="1" as="geometry">
            <mxPoint x="659.8899999999998" y="200" as="sourcePoint" />
            <mxPoint x="659.8899999999998" y="160" as="targetPoint" />
          </mxGeometry>
        </mxCell>
        <mxCell id="QuFZAEZIDUNKzH3IeO_t-43" value="" style="endArrow=none;html=1;rounded=0;elbow=vertical;" parent="1" edge="1">
          <mxGeometry width="50" height="50" relative="1" as="geometry">
            <mxPoint x="699.9999999999998" y="200" as="sourcePoint" />
            <mxPoint x="699.9999999999998" y="160" as="targetPoint" />
          </mxGeometry>
        </mxCell>
        <mxCell id="QuFZAEZIDUNKzH3IeO_t-44" value="" style="ellipse;whiteSpace=wrap;html=1;aspect=fixed;spacingLeft=0;spacing=2;" parent="1" vertex="1">
          <mxGeometry x="655" y="150" width="10" height="10" as="geometry" />
        </mxCell>
        <mxCell id="QuFZAEZIDUNKzH3IeO_t-45" value="" style="ellipse;whiteSpace=wrap;html=1;aspect=fixed;spacingLeft=0;spacing=2;" parent="1" vertex="1">
          <mxGeometry x="695" y="150" width="10" height="10" as="geometry" />
        </mxCell>
        <mxCell id="QuFZAEZIDUNKzH3IeO_t-46" value="Data_prenotazione" style="text;html=1;strokeColor=none;fillColor=none;align=center;verticalAlign=middle;whiteSpace=wrap;rounded=0;rotation=90;" parent="1" vertex="1">
          <mxGeometry x="565" y="85" width="110" height="20" as="geometry" />
        </mxCell>
        <mxCell id="QuFZAEZIDUNKzH3IeO_t-47" value="Data_appuntamento" style="text;html=1;strokeColor=none;fillColor=none;align=center;verticalAlign=middle;whiteSpace=wrap;rounded=0;rotation=90;" parent="1" vertex="1">
          <mxGeometry x="600" y="80" width="120" height="20" as="geometry" />
        </mxCell>
        <mxCell id="QuFZAEZIDUNKzH3IeO_t-48" value="Ora&lt;br&gt;" style="text;html=1;strokeColor=none;fillColor=none;align=center;verticalAlign=middle;whiteSpace=wrap;rounded=0;rotation=90;" parent="1" vertex="1">
          <mxGeometry x="685" y="125" width="30" height="20" as="geometry" />
        </mxCell>
        <mxCell id="QuFZAEZIDUNKzH3IeO_t-51" value="" style="endArrow=none;html=1;rounded=0;elbow=vertical;exitX=0;exitY=1;exitDx=0;exitDy=0;" parent="1" source="QuFZAEZIDUNKzH3IeO_t-3" edge="1">
          <mxGeometry width="50" height="50" relative="1" as="geometry">
            <mxPoint x="600.0000000000001" y="629.9999999999999" as="sourcePoint" />
            <mxPoint x="600" y="640" as="targetPoint" />
          </mxGeometry>
        </mxCell>
        <mxCell id="QuFZAEZIDUNKzH3IeO_t-52" value="" style="endArrow=none;html=1;rounded=0;elbow=vertical;exitX=0;exitY=1;exitDx=0;exitDy=0;" parent="1" edge="1">
          <mxGeometry width="50" height="50" relative="1" as="geometry">
            <mxPoint x="640" y="600" as="sourcePoint" />
            <mxPoint x="640" y="640" as="targetPoint" />
          </mxGeometry>
        </mxCell>
        <mxCell id="QuFZAEZIDUNKzH3IeO_t-53" value="" style="endArrow=none;html=1;rounded=0;elbow=vertical;exitX=0;exitY=1;exitDx=0;exitDy=0;" parent="1" edge="1">
          <mxGeometry width="50" height="50" relative="1" as="geometry">
            <mxPoint x="719.31" y="600" as="sourcePoint" />
            <mxPoint x="719.31" y="640" as="targetPoint" />
          </mxGeometry>
        </mxCell>
        <mxCell id="QuFZAEZIDUNKzH3IeO_t-54" value="" style="endArrow=none;html=1;rounded=0;elbow=vertical;exitX=0;exitY=1;exitDx=0;exitDy=0;" parent="1" edge="1">
          <mxGeometry width="50" height="50" relative="1" as="geometry">
            <mxPoint x="680" y="600" as="sourcePoint" />
            <mxPoint x="680" y="640" as="targetPoint" />
          </mxGeometry>
        </mxCell>
        <mxCell id="QuFZAEZIDUNKzH3IeO_t-55" value="" style="ellipse;whiteSpace=wrap;html=1;aspect=fixed;spacingLeft=0;spacing=2;" parent="1" vertex="1">
          <mxGeometry x="635" y="640" width="10" height="10" as="geometry" />
        </mxCell>
        <mxCell id="QuFZAEZIDUNKzH3IeO_t-57" value="" style="ellipse;whiteSpace=wrap;html=1;aspect=fixed;spacingLeft=0;spacing=2;" parent="1" vertex="1">
          <mxGeometry x="675" y="640" width="10" height="10" as="geometry" />
        </mxCell>
        <mxCell id="QuFZAEZIDUNKzH3IeO_t-58" value="" style="ellipse;whiteSpace=wrap;html=1;aspect=fixed;spacingLeft=0;spacing=2;" parent="1" vertex="1">
          <mxGeometry x="715" y="640" width="10" height="10" as="geometry" />
        </mxCell>
        <mxCell id="QuFZAEZIDUNKzH3IeO_t-59" value="" style="shape=waypoint;sketch=0;fillStyle=solid;size=6;pointerEvents=1;points=[];fillColor=none;resizable=0;rotatable=0;perimeter=centerPerimeter;snapToPoint=1;" parent="1" vertex="1">
          <mxGeometry x="580" y="620" width="40" height="40" as="geometry" />
        </mxCell>
        <mxCell id="QuFZAEZIDUNKzH3IeO_t-60" value="id&lt;br&gt;" style="text;html=1;strokeColor=none;fillColor=none;align=center;verticalAlign=middle;whiteSpace=wrap;rounded=0;rotation=90;" parent="1" vertex="1">
          <mxGeometry x="590" y="640" width="20" height="20" as="geometry" />
        </mxCell>
        <mxCell id="QuFZAEZIDUNKzH3IeO_t-61" value="Lunghezza" style="text;html=1;strokeColor=none;fillColor=none;align=center;verticalAlign=middle;whiteSpace=wrap;rounded=0;rotation=90;" parent="1" vertex="1">
          <mxGeometry x="605" y="675" width="70" height="20" as="geometry" />
        </mxCell>
        <mxCell id="QuFZAEZIDUNKzH3IeO_t-62" value="Tipo" style="text;html=1;strokeColor=none;fillColor=none;align=center;verticalAlign=middle;whiteSpace=wrap;rounded=0;rotation=90;" parent="1" vertex="1">
          <mxGeometry x="665" y="655" width="30" height="20" as="geometry" />
        </mxCell>
        <mxCell id="QuFZAEZIDUNKzH3IeO_t-63" value="Tinta" style="text;html=1;strokeColor=none;fillColor=none;align=center;verticalAlign=middle;whiteSpace=wrap;rounded=0;rotation=90;" parent="1" vertex="1">
          <mxGeometry x="705" y="655" width="30" height="20" as="geometry" />
        </mxCell>
      </root>
    </mxGraphModel>
  </diagram>
</mxfile>
